<svg width="232" height="201" viewBox="0 0 232 201" fill="none" xmlns="http://www.w3.org/2000/svg">
<path fill-rule="evenodd" clip-rule="evenodd" d="M52.8437 61.9281L0.601687 194.628L106.236 151.94L52.8437 61.9281ZM53.3708 68.4896L5.76179 189.421L102.028 150.519L53.3708 68.4896Z" fill="#82B1FF"/>
<path fill-rule="evenodd" clip-rule="evenodd" d="M163.096 70.1349L112.748 128.787L218.393 179.691L163.096 70.1349ZM162.466 75.3112L117.397 127.815L211.966 173.382L162.466 75.3112Z" fill="#82B1FF"/>
<path d="M80.8794 68.324C85.3914 88.4023 72.7725 108.337 52.6943 112.849C32.616 117.361 12.6817 104.742 8.1697 84.6634C3.6577 64.5852 16.2766 44.6509 36.3549 40.1389C56.4331 35.6269 76.3674 48.2458 80.8794 68.324Z" fill="#E3F2FD"/>
<path d="M69.1656 41.305C61.2844 35.9578 51.7466 33.263 42.0884 33.6545C32.4301 34.046 23.2136 37.5011 15.9231 43.4633C8.63257 49.4255 3.69245 57.5478 1.89831 66.5221C0.104179 75.4964 1.56047 84.8003 6.03264 92.9354L22.393 84.9669C19.8371 80.3177 19.0048 75.0004 20.0302 69.8716C21.0555 64.7428 23.8788 60.1008 28.0454 56.6934C32.212 53.286 37.4792 51.3114 42.999 51.0876C48.5187 50.8639 53.9696 52.404 58.4738 55.4599L69.1656 41.305Z" fill="#263238"/>
<path fill-rule="evenodd" clip-rule="evenodd" d="M75.3137 92.3204L54.1229 71.0491L56.1733 69.0066L83.2726 96.2089L50.9045 92.2524L51.2557 89.3797L75.3137 92.3204Z" fill="#263238"/>
<path d="M49.4638 67.8881C50.3195 69.6139 49.462 71.7819 47.5486 72.7306C45.6352 73.6793 43.3904 73.0494 42.5348 71.3237C41.6791 69.598 42.5366 67.4299 44.45 66.4812C46.3634 65.5325 48.6081 66.1624 49.4638 67.8881Z" fill="#304FFE"/>
<path d="M63.9325 63.0819C64.7882 64.8076 63.9307 66.9757 62.0173 67.9244C60.1039 68.8731 57.8592 68.2432 57.0035 66.5174C56.1479 64.7917 57.0053 62.6236 58.9187 61.6749C60.8321 60.7262 63.0769 61.3561 63.9325 63.0819Z" fill="#304FFE"/>
<path d="M133.374 61.6862C128.006 79.0192 137.705 97.4221 155.038 102.79C172.371 108.158 190.774 98.459 196.143 81.126C201.511 63.793 191.811 45.3901 174.478 40.0219C157.145 34.6537 138.742 44.3532 133.374 61.6862Z" fill="#ECEFF1"/>
<path d="M197.588 92.0488C179.968 54.2505 164.101 47.3322 125.719 59.0061C125.719 59.0061 141.27 17.6576 180.777 31.5271C220.284 45.3966 197.588 92.0488 197.588 92.0488Z" fill="#455A64"/>
<path fill-rule="evenodd" clip-rule="evenodd" d="M150.26 86.1833L157.022 68.9741L154.329 67.9156L145.84 89.5186L159.887 88.1594L159.609 85.2788L150.26 86.1833Z" fill="#263238"/>
<path d="M164.25 66.0379C163.375 67.4987 163.979 69.4692 165.599 70.4391C167.219 71.4091 169.241 71.0112 170.116 69.5504C170.99 68.0896 170.387 66.1191 168.767 65.1491C167.147 64.1792 165.125 64.5771 164.25 66.0379Z" fill="#304FFE"/>
<path d="M142.591 62.4709C141.716 63.9317 142.32 65.9022 143.939 66.8721C145.559 67.8421 147.581 67.4442 148.456 65.9834C149.331 64.5226 148.727 62.5521 147.107 61.5821C145.488 60.6122 143.466 61.0101 142.591 62.4709Z" fill="#304FFE"/>
</svg>
